<?xml version="1.0" encoding="utf-8"?>
<!-- Generator: Adobe Illustrator 16.0.0, SVG Export Plug-In . SVG Version: 6.00 Build 0)  -->
<!DOCTYPE svg PUBLIC "-//W3C//DTD SVG 1.1//EN" "http://www.w3.org/Graphics/SVG/1.1/DTD/svg11.dtd">
<svg version="1.1" id="Layer_1" xmlns="http://www.w3.org/2000/svg" xmlns:xlink="http://www.w3.org/1999/xlink" x="0px" y="0px"
	 width="248.37695px" height="29.9165px" viewBox="0 0 248.37695 29.9165" style="enable-background:new 0 0 248.37695 29.9165;"
	 xml:space="preserve">
<g>
	<path style="fill:#E4087E;" d="M15.06152,22.26221h-3.81201v-7.12012c0-1.01367-0.3623-1.88477-1.09131-2.61523
		c-0.73193-0.7334-1.60156-1.09961-2.61426-1.09961c-1.02979,0-1.91016,0.36133-2.64062,1.08301
		c-0.729,0.7207-1.09424,1.59961-1.09424,2.63184v7.12012H0v-7.10645c0-2.0791,0.73438-3.84863,2.20605-5.31055
		C3.67627,8.3833,5.45215,7.6543,7.5332,7.6543s3.86035,0.74365,5.34229,2.229c1.48242-1.48535,3.25977-2.229,5.34521-2.229
		c2.08105,0,3.85693,0.729,5.32715,2.19092s2.20605,3.23145,2.20605,5.31055v7.10645h-3.80908v-7.12012
		c0-1.03223-0.35986-1.91113-1.08057-2.63184c-0.72266-0.72168-1.59766-1.08301-2.62744-1.08301
		c-1.38721,0-2.44385,0.59082-3.17529,1.77051v0.03223V22.26221z"/>
	<path style="fill:#E4087E;" d="M40.56299,9.81494c1.46338,1.46289,2.19531,3.23828,2.19531,5.32129
		s-0.73193,3.86035-2.19531,5.33594c-1.46094,1.47168-3.23291,2.20801-5.31543,2.20801c-2.10107,0-3.88281-0.73242-5.34521-2.19531
		c-1.46436-1.46387-2.19482-3.24805-2.19482-5.34863c0-2.08301,0.73438-3.8584,2.20996-5.32129
		c1.47021-1.46387,3.24756-2.19678,5.33008-2.19678S39.10205,8.35107,40.56299,9.81494z M37.86426,12.52295
		c-0.73047-0.72949-1.59912-1.0957-2.60986-1.0957c-1.03271,0-1.91211,0.36133-2.64258,1.08301
		c-0.72998,0.71973-1.09277,1.59668-1.09277,2.62598s0.36279,1.91211,1.09277,2.64062
		c0.73047,0.73047,1.60986,1.09473,2.64258,1.09473c1.02832,0,1.90381-0.36426,2.62451-1.09473
		c0.72266-0.72852,1.08203-1.61133,1.08203-2.64062C38.96094,14.12451,38.59619,13.25439,37.86426,12.52295z"/>
	<path style="fill:#E4087E;" d="M57.58301,9.81494c1.46094,1.46289,2.19385,3.23828,2.19385,5.32129
		s-0.73291,3.86035-2.19385,5.33594c-1.46045,1.47168-3.23535,2.20801-5.31787,2.20801c-2.09863,0-3.88037-0.73242-5.34375-2.19531
		c-1.46338-1.46387-2.19385-3.24805-2.19385-5.34863c0-2.08301,0.73438-3.8584,2.20752-5.32129
		c1.47412-1.46387,3.25049-2.19678,5.33008-2.19678C54.34766,7.61816,56.12256,8.35107,57.58301,9.81494z M54.88428,12.52295
		c-0.72998-0.72949-1.59863-1.0957-2.61133-1.0957c-1.03076,0-1.91016,0.36133-2.64062,1.08301
		c-0.73047,0.71973-1.09424,1.59668-1.09424,2.62598s0.36377,1.91211,1.09424,2.64062
		c0.73047,0.73047,1.60986,1.09473,2.64062,1.09473c1.02979,0,1.90527-0.36426,2.62646-1.09473
		c0.7207-0.72852,1.08057-1.61133,1.08057-2.64062C55.97998,14.12451,55.61621,13.25439,54.88428,12.52295z"/>
	<path style="fill:#E4087E;" d="M76.80957,15.14893c0,2.07812-0.73047,3.85449-2.19678,5.32715
		c-1.46338,1.4707-3.23828,2.2041-5.31787,2.2041c-2.10254,0-3.88818-0.73047-5.35205-2.19043
		c-1.46436-1.45898-2.19482-3.23926-2.19482-5.33691c0-2.07812,0.73438-3.84766,2.20703-5.30762
		C65.4292,8.3833,67.20557,7.6543,69.28809,7.6543c1.32764,0,2.56836,0.3208,3.7124,0.9624V0h3.80908V15.14893z M73.00049,15.15283
		c0-1.01367-0.36377-1.89062-1.0957-2.625c-0.73047-0.7334-1.60059-1.10059-2.60986-1.10059
		c-1.03271,0-1.91211,0.36328-2.64355,1.08691c-0.72949,0.72363-1.09326,1.60449-1.09326,2.63867s0.36377,1.91895,1.09326,2.6543
		c0.73145,0.73242,1.61084,1.10156,2.64355,1.10156c1.02832,0,1.90381-0.36914,2.62305-1.10156
		C72.64062,17.07178,73.00049,16.18701,73.00049,15.15283z"/>
	<path style="fill:#E4087E;" d="M84.1333,22.50635c-0.88232-0.01855-1.84766-0.21973-2.89893-0.60547
		c-1.0498-0.38086-1.89307-0.84668-2.53223-1.38672l2.1123-2.72656c1.01074,0.93262,2.09033,1.39844,3.23438,1.39844h0.08447
		c0.48877,0,0.90869-0.08203,1.26465-0.25195c0.48877-0.22559,0.73193-0.54297,0.73193-0.95312v-0.11133
		c-0.05811-0.43164-0.34668-0.74023-0.87012-0.92676c-0.17041-0.03906-0.60938-0.12109-1.32275-0.25391
		c-0.8457-0.16895-1.55859-0.375-2.14014-0.61914c-1.70752-0.72656-2.55762-2.00684-2.55762-3.84277
		c0-1.75879,0.87012-3.07568,2.61279-3.95654c0.771-0.39453,1.60596-0.59863,2.50684-0.61621
		c0.90088-0.02002,1.86475,0.13965,2.896,0.48047c1.18164,0.39355,2.01807,0.90918,2.50684,1.54639l-2.53516,2.2832
		c-0.39209-0.39648-0.75293-0.65918-1.08057-0.79492c-0.3291-0.12891-0.68213-0.19531-1.0542-0.19531
		c-1.20312,0-1.80176,0.39551-1.80176,1.18164v0.05566c0,0.24414,0.16797,0.45605,0.50635,0.63086
		c0.33691,0.18066,1.27393,0.40918,2.81152,0.69141c2.36426,0.44824,3.54541,1.8916,3.54541,4.33008v0.08496
		c0,0.90039-0.29932,1.71777-0.89941,2.44824C88.05371,21.86084,86.34717,22.56201,84.1333,22.50635z"/>
	<path style="fill:#E4087E;" d="M117.30762,9.81494c1.46338,1.46289,2.19678,3.23828,2.19678,5.32129
		s-0.7334,3.86035-2.19678,5.33594c-1.46582,1.47168-3.23438,2.20801-5.31787,2.20801c-2.09863,0-3.88135-0.73242-5.34619-2.19531
		c-1.4624-1.46387-2.19141-3.24805-2.19141-5.34863c0-2.08301,0.73438-3.8584,2.20898-5.32129
		c1.47119-1.46387,3.24902-2.19678,5.32861-2.19678C114.07324,7.61816,115.8418,8.35107,117.30762,9.81494z M114.60791,12.52295
		c-0.729-0.72949-1.59912-1.0957-2.61133-1.0957c-1.02979,0-1.91064,0.36133-2.64111,1.08301
		c-0.73047,0.71973-1.0957,1.59668-1.0957,2.62598s0.36523,1.91211,1.0957,2.64062c0.73047,0.73047,1.61133,1.09473,2.64111,1.09473
		s1.90479-0.36426,2.62744-1.09473c0.7207-0.72852,1.07812-1.61133,1.07812-2.64062
		C115.70215,14.12451,115.33936,13.25439,114.60791,12.52295z"/>
	<path style="fill:#E4087E;" d="M129.01807,16.66846h-3.73926v5.59375h-3.80908V7.53223c0-2.09863,0.73193-3.87891,2.19824-5.34229
		C125.13232,0.73047,126.91553,0,129.01807,0v3.78906c-1.02979,0-1.91211,0.36621-2.64209,1.09668
		c-0.73047,0.72754-1.09717,1.6084-1.09717,2.63818v5.89453h3.73926V16.66846z"/>
	<path style="fill:#E4087E;" d="M148.15283,12.51416c-0.73291,0.71973-1.09961,1.59668-1.09961,2.62891v7.11914h-3.81006v-7.12402
		c0-2.08398,0.73828-3.85742,2.21094-5.32324c1.47168-1.46387,3.24658-2.19678,5.3291-2.19678
		c2.08496,0,3.8584,0.73291,5.33398,2.19678c1.47168,1.46582,2.20605,3.23926,2.20605,5.32324v7.12402h-3.7915v-7.11914
		c0-1.01074-0.36523-1.88477-1.09961-2.61523c-0.73584-0.7334-1.6084-1.09961-2.625-1.09961
		C149.76953,11.42822,148.88721,11.79053,148.15283,12.51416z"/>
	<path style="fill:#E4087E;" d="M173.12012,9.81494c1.46338,1.46289,2.19531,3.23828,2.19531,5.32129
		s-0.73193,3.86035-2.19531,5.33594c-1.46338,1.47168-3.23291,2.20801-5.31689,2.20801c-2.09961,0-3.88525-0.73242-5.34473-2.19531
		c-1.4624-1.46387-2.19385-3.24805-2.19385-5.34863c0-2.08301,0.73682-3.8584,2.20996-5.32129
		c1.47119-1.46387,3.24902-2.19678,5.32861-2.19678C169.88721,7.61816,171.65674,8.35107,173.12012,9.81494z M170.42139,12.52295
		c-0.73047-0.72949-1.60156-1.0957-2.60986-1.0957c-1.03125,0-1.91357,0.36133-2.64111,1.08301
		c-0.729,0.71973-1.09961,1.59668-1.09961,2.62598s0.37061,1.91211,1.09961,2.64062
		c0.72754,0.73047,1.60986,1.09473,2.64111,1.09473c1.02686,0,1.90381-0.36426,2.62598-1.09473
		c0.71973-0.72852,1.07959-1.61133,1.07959-2.64062C171.51709,14.12451,171.1543,13.25439,170.42139,12.52295z"/>
	<path style="fill:#E4087E;" d="M179.49463,9.81494c1.46729-1.46387,3.24951-2.19678,5.32666-2.19678v3.80225
		c-1.03027,0-1.91406,0.36133-2.64258,1.08301c-0.73145,0.72363-1.09668,1.60352-1.09668,2.63477v7.12402h-3.79736v-7.12402
		C177.28467,13.0542,178.02051,11.28076,179.49463,9.81494z"/>
	<path style="fill:#E4087E;" d="M201.80469,17.11475c0.72656,1.19922,1.7793,1.79785,3.16113,1.79785
		c1.02539,0,1.89258-0.36426,2.6084-1.09766c0.72168-0.72949,1.08203-1.61328,1.08203-2.64355V7.6543h3.82129v7.51709
		c0,2.10156-0.7334,3.88574-2.19727,5.34961c-1.45996,1.46484-3.24414,2.19629-5.3418,2.19629
		c-2.08203,0-3.86816-0.75488-5.34668-2.25684c-1.4834,1.50195-3.26367,2.25684-5.34473,2.25684
		c-2.09863,0-3.88281-0.73145-5.34473-2.19629c-1.46387-1.46387-2.19141-3.24805-2.19141-5.34961V7.6543h3.80957v7.51709
		c0,1.03027,0.36133,1.91406,1.09082,2.64355c0.73535,0.7334,1.61035,1.09766,2.63965,1.09766
		c1.03125,0,1.90527-0.36426,2.62793-1.09766c0.72266-0.72949,1.08496-1.61328,1.08496-2.64355V7.6543h3.84082V17.11475z"/>
	<path style="fill:#E4087E;" d="M228.48828,22.26221l-0.79492-2.18945c-1.49707,1.76367-3.41016,2.64453-5.73438,2.64453
		c-1.59375,0-3.03223-0.45215-4.31641-1.35156c-1.28223-0.90137-2.19922-2.10156-2.73926-3.60547
		c-0.30371-0.80859-0.45117-1.66113-0.45117-2.56055c0-1.59473,0.45117-3.03516,1.35059-4.32227
		c0.89941-1.28418,2.10156-2.2002,3.59863-2.74268c0.86523-0.3208,1.72656-0.48047,2.58984-0.48047
		c1.5957,0,3.0332,0.45654,4.31738,1.36377c1.28418,0.9082,2.20215,2.11719,2.74316,3.61816l3.48926,9.62598H228.48828z
		 M219.86328,18.26221c0.6377,0.45312,1.33789,0.67969,2.10742,0.67969c1.02637,0,1.9082-0.36426,2.63965-1.0918
		c0.72949-0.72656,1.0957-1.60938,1.0957-2.64941c0-1.30176-0.5332-2.3291-1.60352-3.08789
		c-0.63477-0.43164-1.35059-0.64941-2.13184-0.64941c-1.31543,0-2.32129,0.53027-3.03711,1.58594
		c-0.44824,0.66113-0.6709,1.38086-0.6709,2.15137C218.2627,16.50342,218.79395,17.52588,219.86328,18.26221z"/>
	<path style="fill:#E4087E;" d="M248.37695,22.41162c0,2.0957-0.73145,3.87402-2.19336,5.32422
		c-1.45996,1.45312-3.23535,2.18066-5.32715,2.18066v-3.7998c1.01953,0,1.89355-0.3623,2.61914-1.08301
		c0.73145-0.72168,1.09277-1.59961,1.09277-2.63184v-0.67383c-1.16309,0.65918-2.40723,0.98926-3.73633,0.98926
		c-2.07617,0-3.84766-0.7373-5.31543-2.20898c-1.46875-1.46973-2.20312-3.24512-2.20312-5.32617V7.6543h3.84473v7.54248
		c0,1.03613,0.36035,1.91602,1.07715,2.64844c0.71387,0.72852,1.58789,1.09668,2.6123,1.09668
		c1.02344,0,1.90234-0.36816,2.62793-1.09668c0.72656-0.73242,1.09277-1.6123,1.09277-2.64844V7.6543h3.80859V22.41162z"/>
</g>
</svg>
