<svg width="65" height="35" viewBox="0 0 65 35" xmlns="http://www.w3.org/2000/svg"><title>tractor</title><g fill="#F32C8B" fill-rule="evenodd"><path d="M64.75 18.99s-.747-1.22-.747-2.925c0-1.553-1.043-2.57-1.217-2.695 0 0-.875-.6-1.124-1.49 0 0-.168-.71-1.136-1.198 0 0-3.268-1.26-1.373-2.785 0 0 2.84-.557 2.584-1.81 0 0-4.346 1.355-6.397.753-1.385-.41-1.01-.124-2.14.08-1.07.19-1.97.122-3.307-.243-.672-.186-1.107-.366-2.196.242 0 0-1.38.842-3.025 1.1-1.31.192-1.68.63-1.808.77-.035.04-1.118 1-1.27 1.1-.358-.277-.52-.73-.59-1.19V7.47c.012-.113.03-.18.03-.18.034-1.828-1.253-1.615-1.41-1.586-.04-.006-.086-.006-.132-.006h-.66a22.572 22.572 0 0 1-2.446-.27c-.823-.428 0-.816 0-.816l7.237-1.22c1.066-.27 1.142 1.08 1.142 1.575 0 .107.104.185.15.19.898 0 .846-.753.846-.753v-.118c.05-3.032-.71-3.74-.71-3.74-1-.85-1 .247-1 .247v.85c.08.652-.8.894-.8.894l-8.95 1.26-.376.405-.51-.484c-.54-.653-1.34-.366-1.34-.366-2.42.77-12.052 1.868-12.052 1.868-1.216 0-1.4-1.097-1.4-1.097V1.54c0-.87-.94-.87-.94-.87-.83.04-.927.854-.927.854V4.04c-.09 1.28-1 1.585-1.41 1.658H8.81c-.83 0-1.507.658-1.507 1.462v10.03c.01.197-.052.956-1.182.995H2.98s-1.176-.045-1.176 1.22c0 0 .127 2.437-1.21 2.842 0 0-.083.568.71.528.795-.045 1.085-.613 1.13-1.175 0 0-.288-2.565 1.38-2.363l3.14-.04 1.566.845c-2.805.77-4.85 3.268-4.85 6.232 0 3.583 2.995 6.48 6.68 6.48 3.686 0 6.676-2.897 6.676-6.48 0-2.745-1.762-5.09-4.242-6.035l3.964-.23.168-.25s6.403.21 7.203.41c0 0 .45.12.58.406 0 0 .46 2.03 2.01 1.75l8.77-.226c-.02.09 1.532.46 1.49 2.21-.056 1.785.99 2.797 1.67 3.45 1.21 1.18.87 2.69 3.31 3.544 1.952.68 2.752 2.063 4.55 2.35 0 0 2.72-.085 4.06.647 0 0 1.512.328 2.26-.24 0 0 1.674-1.06 3.726-1.097 0 0 1.217.08 1.715-1.013 0 0 .795-1.266 2.643-1.834 0 0 .707-.283.835-.77.126-.486.375-1.914 1.39-2.798 0 0 1.367-1.07 1.17-2.76 0 0-.26-1.274.41-2.534 0 0 .54-1.255.036-2.273M14.23 26.27c0 2.08-1.744 3.77-3.882 3.77-2.15 0-3.886-1.69-3.886-3.77s1.74-3.773 3.89-3.773c2.137 0 3.88 1.693 3.88 3.774M50.6 29.31c-5.268 0-9.527-4.078-9.527-9.1 0-5.03 4.26-9.102 9.527-9.102 5.255 0 9.52 4.072 9.52 9.1 0 5.024-4.265 9.102-9.52 9.102"/><path d="M50.6 18.602c-.945 0-1.698.714-1.698 1.603 0 .883.753 1.597 1.698 1.597.933 0 1.698-.714 1.698-1.597 0-.89-.765-1.603-1.698-1.603M9.267 26.274c0 .563.487 1.018 1.084 1.018.6 0 1.09-.455 1.09-1.018 0-.568-.487-1.018-1.083-1.018s-1.083.45-1.083 1.018"/></g></svg>