<?xml version="1.0" standalone="no"?>
<!DOCTYPE svg PUBLIC "-//W3C//DTD SVG 20010904//EN"
 "http://www.w3.org/TR/2001/REC-SVG-20010904/DTD/svg10.dtd">
<svg version="1.0" xmlns="http://www.w3.org/2000/svg"
 width="362.000000pt" height="362.000000pt" viewBox="0 0 362.000000 362.000000"
 preserveAspectRatio="xMidYMid meet">
<metadata>
Created by potrace 1.13, written by Peter Selinger 2001-2015
</metadata>
<g transform="translate(0.000000,362.000000) scale(0.100000,-0.100000)"
fill="#000000" stroke="none">
<path d="M1605 3569 c-82 -11 -113 -21 -40 -14 28 3 113 8 190 11 801 35 1533
-524 1723 -1316 12 -47 23 -94 25 -105 4 -15 5 -14 6 6 0 15 -10 69 -23 120
-158 608 -608 1071 -1208 1244 -195 56 -476 79 -673 54z"/>
<path d="M1345 3516 c-147 -43 -212 -69 -320 -124 -324 -165 -600 -442 -758
-758 -122 -242 -175 -454 -184 -734 -16 -489 155 -919 507 -1271 251 -251 535
-405 873 -474 963 -195 1892 448 2053 1421 18 110 24 369 11 477 -15 118 -19
66 -7 -80 19 -228 -17 -488 -101 -715 -104 -283 -299 -556 -532 -741 -523
-419 -1227 -500 -1826 -210 -334 161 -620 442 -785 772 -281 560 -238 1228
112 1737 170 247 390 439 651 570 139 69 191 88 346 129 72 19 117 34 100 34
-16 0 -79 -15 -140 -33z"/>
<path d="M2310 2486 c0 -35 -21 -66 -44 -66 -28 0 -348 -50 -357 -56 -6 -3
-19 2 -30 12 -18 17 -24 16 -132 -4 -61 -12 -179 -31 -260 -42 -192 -26 -197
-24 -197 96 0 51 -4 66 -16 71 -35 13 -49 -11 -55 -91 -8 -111 -6 -110 -194
-114 -145 -3 -156 -5 -170 -25 -12 -18 -15 -62 -15 -242 0 -159 -3 -224 -12
-233 -7 -7 -43 -12 -93 -12 -44 0 -86 -4 -94 -9 -8 -5 -18 -35 -22 -66 -5 -36
-15 -65 -28 -79 -22 -24 -19 -36 10 -36 28 0 49 29 49 68 0 21 7 48 16 60 13
19 24 22 85 22 45 0 81 -6 101 -16 l32 -17 -37 -18 c-45 -24 -101 -79 -123
-122 -10 -17 -19 -64 -22 -102 -4 -58 0 -80 18 -123 74 -172 294 -215 429 -83
75 73 97 163 65 270 -16 55 -79 135 -115 146 -46 15 -10 23 124 30 78 3 178 3
221 -2 77 -8 80 -9 99 -43 11 -19 24 -39 31 -43 6 -5 97 -6 201 -2 l191 6 27
-25 c17 -16 27 -36 27 -53 0 -49 19 -98 53 -139 18 -21 46 -61 61 -88 21 -37
39 -53 75 -68 25 -12 72 -38 103 -59 47 -32 68 -40 120 -44 35 -3 89 -13 120
-22 57 -16 58 -16 119 11 33 16 86 31 116 35 48 7 60 13 88 46 17 21 53 50 80
64 39 22 51 34 66 75 10 27 29 61 42 75 37 39 47 65 47 119 0 26 7 70 16 96
17 48 16 58 -10 161 -8 33 -18 77 -21 97 -3 21 -18 50 -37 70 -17 18 -39 47
-48 63 -9 17 -32 40 -51 53 -61 41 -70 52 -67 79 2 20 12 29 43 40 42 14 83
48 72 59 -3 4 -28 1 -54 -6 -62 -16 -332 -22 -404 -8 -52 9 -60 8 -120 -20
-35 -16 -81 -32 -102 -35 -22 -3 -55 -21 -81 -42 -50 -41 -56 -36 -57 43 -1
82 -5 86 -105 97 -67 8 -89 14 -89 25 0 9 15 17 40 21 22 4 91 17 154 28 123
23 141 20 141 -25 0 -25 11 -36 26 -26 18 12 21 35 14 100 -11 87 -60 142 -60
68z m356 -430 c105 -28 198 -105 244 -203 106 -225 -32 -477 -286 -525 -50 -9
-74 -8 -134 6 -339 76 -409 509 -112 683 85 50 192 65 288 39z m-1626 -478
c53 -37 74 -72 74 -126 0 -94 -64 -156 -157 -155 -56 1 -89 20 -125 74 -30 43
-27 120 6 166 45 63 141 82 202 41z"/>
</g>
</svg>
