<?xml version="1.0" standalone="no"?>
<!DOCTYPE svg PUBLIC "-//W3C//DTD SVG 20010904//EN"
 "http://www.w3.org/TR/2001/REC-SVG-20010904/DTD/svg10.dtd">
<svg version="1.0" xmlns="http://www.w3.org/2000/svg"
 width="300.000000pt" height="300.000000pt" viewBox="0 0 300.000000 300.000000"
 preserveAspectRatio="xMidYMid meet">
<metadata>
Created by potrace 1.13, written by Peter Selinger 2001-2015
</metadata>
<g transform="translate(0.000000,300.000000) scale(0.100000,-0.100000)"
fill="#000000" stroke="none">
<path d="M622 2989 c-258 -31 -442 -151 -541 -354 -78 -160 -83 -228 -78
-1205 3 -742 5 -832 21 -899 34 -143 87 -243 176 -331 92 -93 193 -145 342
-177 76 -17 153 -18 958 -18 805 0 882 1 958 18 149 32 250 84 342 177 93 92
145 193 177 342 17 76 18 153 18 958 0 805 -1 882 -18 958 -32 149 -84 250
-177 342 -88 89 -188 142 -331 176 -67 16 -154 18 -924 20 -467 1 -883 -2
-923 -7z m686 -676 l-3 -37 -47 3 -48 3 0 -146 0 -146 -45 0 -45 0 0 146 0
146 -50 -4 -50 -3 0 38 0 37 146 0 145 0 -3 -37z m124 -28 l-4 -65 71 0 71 0
0 65 0 65 45 0 45 0 0 -180 0 -180 -45 0 -45 0 0 75 0 75 -70 0 -70 0 0 -76 0
-75 -42 3 -43 3 -3 178 -2 177 47 0 48 0 -3 -65z m546 28 l-3 -38 -75 -1 -75
-1 -3 -32 -3 -31 75 0 76 0 0 -35 0 -35 -75 0 -75 0 0 -35 0 -35 85 0 85 0 0
-40 0 -41 -127 3 -128 3 -3 178 -2 177 125 0 126 0 -3 -37z m112 -569 c36 -17
75 -40 87 -50 l22 -19 -64 -70 c-49 -53 -68 -68 -78 -60 -55 39 -71 48 -108
56 -76 17 -141 -10 -155 -66 -9 -37 18 -70 73 -91 215 -78 249 -97 294 -162
44 -64 38 -200 -12 -275 -75 -114 -256 -161 -427 -112 -60 17 -182 86 -182
102 0 4 30 38 66 74 l66 67 45 -34 c53 -41 113 -58 173 -50 72 9 110 70 80
127 -13 23 -63 49 -155 79 -99 32 -136 53 -178 99 -77 85 -77 221 0 310 70 83
150 112 293 108 82 -2 104 -7 160 -33z m-1312 -71 l-3 -88 -122 -3 -123 -3 0
-344 0 -345 -105 0 -105 0 0 345 0 345 -120 0 -120 0 0 90 0 90 350 0 351 0
-3 -87z m672 -3 l0 -90 -190 0 -190 0 0 -80 0 -80 180 0 180 0 0 -85 0 -85
-180 0 -181 0 3 -87 3 -88 200 -3 200 -2 -2 -88 -1 -87 -301 -3 -301 -2 0 435
0 435 290 0 290 0 0 -90z m1478 3 l-3 -88 -122 -3 -123 -3 0 -345 0 -345 -102
3 -103 3 -3 343 -2 342 -120 0 -120 0 0 90 0 90 350 0 351 0 -3 -87z"/>
</g>
</svg>
